<svg width="261" height="116" viewBox="0 0 261 116" fill="none" xmlns="http://www.w3.org/2000/svg">
<g filter="url(#filter0_d_10669_33744)">
<rect x="13" y="7" width="246.188" height="101.656" rx="12.625" fill="#F0FAFE" shape-rendering="crispEdges"/>
<rect x="26.125" y="20.125" width="21.0938" height="21.0938" rx="5.5" fill="#0267FD"/>
<path d="M40.1895 34.5273V35.8835" stroke="white" stroke-width="1.0333" stroke-linecap="round" stroke-linejoin="round"/>
<path d="M32.957 34.5273V35.8835" stroke="white" stroke-width="1.0333" stroke-linecap="round" stroke-linejoin="round"/>
<path d="M41.546 25.9375H31.6005C31.3508 25.9375 31.1484 26.1399 31.1484 26.3896V34.0747C31.1484 34.3244 31.3508 34.5268 31.6005 34.5268H41.546C41.7956 34.5268 41.998 34.3244 41.998 34.0747V26.3896C41.998 26.1399 41.7956 25.9375 41.546 25.9375Z" stroke="white" stroke-width="1.0333" stroke-linecap="round" stroke-linejoin="round"/>
<path d="M37.9295 31.363C38.4289 31.363 38.8337 30.9582 38.8337 30.4588C38.8337 29.9595 38.4289 29.5547 37.9295 29.5547C37.4302 29.5547 37.0254 29.9595 37.0254 30.4588C37.0254 30.9582 37.4302 31.363 37.9295 31.363Z" fill="white"/>
<path d="M37.9297 30.4609H41.9983" stroke="white" stroke-width="1.0333" stroke-linecap="round" stroke-linejoin="round"/>
<path d="M37.9293 32.716C39.1776 32.716 40.1896 31.704 40.1896 30.4556C40.1896 29.2073 39.1776 28.1953 37.9293 28.1953C36.6809 28.1953 35.6689 29.2073 35.6689 30.4556C35.6689 31.704 36.6809 32.716 37.9293 32.716Z" stroke="white" stroke-width="1.0333" stroke-linecap="round" stroke-linejoin="round"/>
<rect x="26.125" y="20.125" width="21.0938" height="21.0938" rx="5.5" stroke="#0267FD"/>
<path d="M35.8891 50.4162H34.715L31.2558 56.8171L27.8091 50.4162H26.6224V58.875H27.9354V53.2821L30.9401 58.875H31.584L34.5761 53.2821V58.875H35.8891V50.4162ZM43.9515 52.6004H42.487L40.4796 57.1201L38.5227 52.6004H37.0582L39.76 58.7235L38.7373 61.0213H40.2018L43.9515 52.6004ZM56.0628 50.4162H54.5604L51.7324 57.0444L48.9044 50.4162H47.4147L51.0885 58.875H52.3889L56.0628 50.4162ZM62.6189 52.613H61.3059V53.3326C60.763 52.7645 59.9803 52.4362 59.0334 52.4362C57.3922 52.4362 55.9277 53.7745 55.9277 55.744C55.9277 57.7261 57.3922 59.0518 59.0334 59.0518C59.9803 59.0518 60.763 58.7235 61.3059 58.1554V58.875H62.6189V52.613ZM59.248 57.8902C58.0992 57.8902 57.2028 57.0696 57.2028 55.744C57.2028 54.431 58.0992 53.5977 59.248 53.5977C60.2833 53.5977 61.3059 54.431 61.3059 55.744C61.3059 57.0696 60.2833 57.8902 59.248 57.8902ZM70.4411 52.613H69.1281V55.5041C69.1281 57.0822 68.3958 57.8397 67.2722 57.8397C66.3632 57.8397 65.7698 57.1454 65.7698 56.1227V52.613H64.4568V56.3879C64.4568 57.966 65.4542 59.0518 66.9692 59.0518C67.8908 59.0518 68.6231 58.7109 69.1281 58.1049V58.875H70.4411V52.613ZM73.7503 58.875V49.785H72.4373V58.875H73.7503ZM79.5038 57.4736C79.1755 57.6882 78.7715 57.8145 78.4433 57.8145C77.8246 57.8145 77.408 57.4357 77.408 56.653V53.6987H79.5543V52.613H77.408V50.6687H76.095V52.613H74.7441V53.6987H76.095V56.7414C76.095 58.2942 77.004 59.0518 78.3549 59.0518C78.8851 59.0518 79.3144 58.9255 79.9078 58.572L79.5038 57.4736Z" fill="#0267FD"/>
<path d="M32.237 77.1672H27.629V69.9912H26.681V78.0312H32.237V77.1672ZM36.3163 71.9832C34.5523 71.9832 33.1723 73.2552 33.1723 75.0672C33.1723 76.8792 34.5523 78.1753 36.3163 78.1753C38.0563 78.1753 39.4483 76.8792 39.4483 75.0672C39.4483 73.2552 38.0563 71.9832 36.3163 71.9832ZM36.3163 77.3712C35.0923 77.3712 34.0603 76.4352 34.0603 75.0672C34.0603 73.7112 35.0923 72.7872 36.3163 72.7872C37.5283 72.7872 38.5483 73.7112 38.5483 75.0672C38.5483 76.4352 37.5283 77.3712 36.3163 77.3712ZM43.557 77.3352C42.345 77.3352 41.361 76.4592 41.361 75.0792C41.361 73.7232 42.345 72.8112 43.557 72.8112C44.433 72.8112 45.225 73.2912 45.489 74.2032L46.365 73.9392C46.005 72.7272 44.853 71.9713 43.557 71.9713C41.889 71.9713 40.473 73.2192 40.473 75.0792C40.473 76.9632 41.889 78.1873 43.557 78.1873C44.865 78.1873 46.029 77.4432 46.353 76.2312L45.513 76.0032C45.225 76.8912 44.433 77.3352 43.557 77.3352ZM53.6991 78.0312L49.9551 74.9832L53.3151 72.1152H52.1271L49.2831 74.5152H48.8391V69.3912H47.9271V78.0312H48.8391V75.4152H49.2351L52.4271 78.0312H53.6991ZM63.3252 72.1152H62.3052L60.1452 76.8432L58.0332 72.1152H57.0012L59.6532 77.9472L58.6812 80.0713H59.7012L63.3252 72.1152ZM67.0194 71.9832C65.2554 71.9832 63.8754 73.2552 63.8754 75.0672C63.8754 76.8792 65.2554 78.1753 67.0194 78.1753C68.7594 78.1753 70.1514 76.8792 70.1514 75.0672C70.1514 73.2552 68.7594 71.9832 67.0194 71.9832ZM67.0194 77.3712C65.7954 77.3712 64.7634 76.4352 64.7634 75.0672C64.7634 73.7112 65.7954 72.7872 67.0194 72.7872C68.2314 72.7872 69.2514 73.7112 69.2514 75.0672C69.2514 76.4352 68.2314 77.3712 67.0194 77.3712ZM77.1042 72.1152H76.1802V74.9592C76.1802 76.4952 75.3642 77.3232 74.1282 77.3232C73.1442 77.3232 72.4962 76.5912 72.4962 75.4872V72.1152H71.5722V75.6552C71.5722 77.1552 72.5202 78.1753 73.9482 78.1753C74.9322 78.1753 75.7002 77.7672 76.1802 77.0592V78.0192H77.1042V72.1152ZM82.5044 72.0552C81.4124 72.0552 80.6084 72.6912 80.1284 73.5672V72.1152H79.2044V78.0312H80.1284V75.7512C80.1284 74.1552 80.9324 72.9672 82.5044 72.9672C82.6124 72.9672 82.7444 72.9672 82.8524 72.9792L82.9244 72.1032C82.7564 72.0552 82.6484 72.0552 82.5044 72.0552ZM94.3492 71.9713C93.3412 71.9713 92.5732 72.4392 92.1172 73.1712C91.7692 72.4152 91.0132 71.9713 90.1012 71.9713C89.1772 71.9713 88.5052 72.3672 88.0852 73.0152V72.1152H87.1732V78.0312H88.0852V75.0072C88.0852 73.6152 88.7932 72.8112 89.8852 72.8112C90.7612 72.8112 91.3972 73.4232 91.3972 74.3592V78.0312H92.3092V75.0072C92.3092 73.6152 93.0292 72.8112 94.1212 72.8112C95.0092 72.8112 95.6452 73.4232 95.6452 74.3592V78.0312H96.5572V74.2032C96.5572 72.8592 95.5972 71.9713 94.3492 71.9713ZM101.133 71.9832C99.3687 71.9832 97.9887 73.2552 97.9887 75.0672C97.9887 76.8792 99.3687 78.1753 101.133 78.1753C102.873 78.1753 104.265 76.8792 104.265 75.0672C104.265 73.2552 102.873 71.9832 101.133 71.9832ZM101.133 77.3712C99.9087 77.3712 98.8767 76.4352 98.8767 75.0672C98.8767 73.7112 99.9087 72.7872 101.133 72.7872C102.345 72.7872 103.365 73.7112 103.365 75.0672C103.365 76.4352 102.345 77.3712 101.133 77.3712ZM108.973 71.9713C107.977 71.9713 107.221 72.3792 106.741 73.0992V72.1152H105.829V78.0312H106.741V75.1872C106.741 73.6512 107.557 72.8112 108.793 72.8112C109.777 72.8112 110.437 73.5552 110.437 74.6592V78.0312H111.349V74.4912C111.349 72.9912 110.401 71.9713 108.973 71.9713ZM118.742 74.9232C118.682 73.1592 117.434 71.9713 115.838 71.9713C114.206 71.9713 112.778 73.1952 112.778 75.0912C112.778 76.9752 114.206 78.1873 115.778 78.1873C117.11 78.1873 118.142 77.5392 118.61 76.3032L117.794 76.1112C117.374 77.0592 116.618 77.3832 115.778 77.3832C114.758 77.3832 113.75 76.5912 113.666 75.2592H118.742V74.9232ZM115.838 72.7752C116.822 72.7752 117.65 73.4112 117.818 74.5752H113.702C113.882 73.4112 114.878 72.7752 115.838 72.7752ZM125.61 72.1152H124.59L122.43 76.8432L120.318 72.1152H119.286L121.938 77.9472L120.966 80.0713H121.986L125.61 72.1152ZM133.187 72.8832V72.1152H131.039V71.2392C131.039 70.4832 131.495 70.0152 132.215 70.0152C132.431 70.0152 132.671 70.0632 132.887 70.1472L133.115 69.4032C132.827 69.2592 132.503 69.1872 132.155 69.1872C130.919 69.1872 130.127 69.9912 130.127 71.2392V72.1152H129.095V72.8832H130.127V78.0312H131.039V72.8832H133.187ZM136.734 71.9832C134.97 71.9832 133.59 73.2552 133.59 75.0672C133.59 76.8792 134.97 78.1753 136.734 78.1753C138.474 78.1753 139.866 76.8792 139.866 75.0672C139.866 73.2552 138.474 71.9832 136.734 71.9832ZM136.734 77.3712C135.51 77.3712 134.478 76.4352 134.478 75.0672C134.478 73.7112 135.51 72.7872 136.734 72.7872C137.946 72.7872 138.966 73.7112 138.966 75.0672C138.966 76.4352 137.946 77.3712 136.734 77.3712ZM144.731 72.0552C143.639 72.0552 142.835 72.6912 142.355 73.5672V72.1152H141.431V78.0312H142.355V75.7512C142.355 74.1552 143.159 72.9672 144.731 72.9672C144.839 72.9672 144.971 72.9672 145.079 72.9792L145.151 72.1032C144.983 72.0552 144.875 72.0552 144.731 72.0552ZM154.632 72.1152H150.528V71.2392C150.528 70.4832 150.984 70.0152 151.716 70.0152C152.004 70.0152 152.268 70.0872 152.52 70.2192L152.76 69.4752C152.424 69.2832 152.076 69.1872 151.656 69.1872C150.408 69.1872 149.616 69.9912 149.616 71.2392V72.1152H148.584V72.8832H149.616V78.0312H150.528V72.8832H153.708V78.0312H154.632V72.1152ZM154.164 70.9392C154.524 70.9392 154.8 70.6752 154.8 70.3272C154.8 70.0032 154.524 69.7152 154.164 69.7152C153.804 69.7152 153.54 70.0032 153.54 70.3272C153.54 70.6752 153.804 70.9392 154.164 70.9392ZM159.925 75.1152L162.181 72.1152H161.077L159.253 74.5512L157.429 72.1152H156.325L158.581 75.1152L156.325 78.0312H157.429L159.253 75.6672L161.077 78.0312H162.181L159.925 75.1152ZM168.968 74.9232C168.908 73.1592 167.66 71.9713 166.064 71.9713C164.432 71.9713 163.004 73.1952 163.004 75.0912C163.004 76.9752 164.432 78.1873 166.004 78.1873C167.336 78.1873 168.368 77.5392 168.836 76.3032L168.02 76.1112C167.6 77.0592 166.844 77.3832 166.004 77.3832C164.984 77.3832 163.976 76.5912 163.892 75.2592H168.968V74.9232ZM166.064 72.7752C167.048 72.7752 167.876 73.4112 168.044 74.5752H163.928C164.108 73.4112 165.104 72.7752 166.064 72.7752ZM176.216 69.3912H175.304V73.0632C174.776 72.3672 173.936 71.9713 172.952 71.9713C171.38 71.9713 170 73.2072 170 75.0792C170 76.9512 171.38 78.1873 172.952 78.1873C173.936 78.1873 174.776 77.7912 175.304 77.0952V78.0312H176.216V69.3912ZM173.096 77.3712C171.872 77.3712 170.888 76.4832 170.888 75.0792C170.888 73.6632 171.872 72.7752 173.096 72.7752C174.212 72.7752 175.304 73.6632 175.304 75.0792C175.304 76.4832 174.212 77.3712 173.096 77.3712ZM187.033 69.3912H186.121V73.0632C185.593 72.3672 184.753 71.9713 183.769 71.9713C182.197 71.9713 180.817 73.2072 180.817 75.0792C180.817 76.9512 182.197 78.1873 183.769 78.1873C184.753 78.1873 185.593 77.7912 186.121 77.0952V78.0312H187.033V69.3912ZM183.913 77.3712C182.689 77.3712 181.705 76.4832 181.705 75.0792C181.705 73.6632 182.689 72.7752 183.913 72.7752C185.029 72.7752 186.121 73.6632 186.121 75.0792C186.121 76.4832 185.029 77.3712 183.913 77.3712ZM194.538 72.1152H193.614V74.9592C193.614 76.4952 192.798 77.3232 191.562 77.3232C190.578 77.3232 189.93 76.5912 189.93 75.4872V72.1152H189.006V75.6552C189.006 77.1552 189.954 78.1753 191.382 78.1753C192.366 78.1753 193.134 77.7672 193.614 77.0592V78.0192H194.538V72.1152ZM199.938 72.0552C198.846 72.0552 198.042 72.6912 197.562 73.5672V72.1152H196.638V78.0312H197.562V75.7512C197.562 74.1552 198.366 72.9672 199.938 72.9672C200.046 72.9672 200.178 72.9672 200.286 72.9792L200.358 72.1032C200.19 72.0552 200.082 72.0552 199.938 72.0552ZM207.047 72.1152H206.135V73.0632C205.607 72.3672 204.767 71.9713 203.783 71.9713C202.211 71.9713 200.831 73.2072 200.831 75.0792C200.831 76.9512 202.211 78.1873 203.783 78.1873C204.767 78.1873 205.607 77.7912 206.135 77.0952V78.0312H207.047V72.1152ZM203.927 77.3712C202.703 77.3712 201.719 76.4832 201.719 75.0792C201.719 73.6632 202.703 72.7752 203.927 72.7752C205.043 72.7752 206.135 73.6632 206.135 75.0792C206.135 76.4832 205.043 77.3712 203.927 77.3712ZM212.406 76.9632C212.106 77.1792 211.734 77.3232 211.398 77.3232C210.738 77.3232 210.306 76.8912 210.306 76.1232V72.8832H212.418V72.1152H210.306V70.2312H209.382V72.1152H208.098V72.8832H209.382V76.1832C209.382 77.4912 210.162 78.1873 211.338 78.1873C211.818 78.1873 212.226 78.0553 212.706 77.7192L212.406 76.9632ZM214.428 69.7152C214.068 69.7152 213.804 70.0032 213.804 70.3272C213.804 70.6752 214.068 70.9392 214.428 70.9392C214.788 70.9392 215.064 70.6752 215.064 70.3272C215.064 70.0032 214.788 69.7152 214.428 69.7152ZM214.896 78.0312V72.1152H213.972V78.0312H214.896ZM219.703 71.9832C217.939 71.9832 216.559 73.2552 216.559 75.0672C216.559 76.8792 217.939 78.1753 219.703 78.1753C221.443 78.1753 222.835 76.8792 222.835 75.0672C222.835 73.2552 221.443 71.9832 219.703 71.9832ZM219.703 77.3712C218.479 77.3712 217.447 76.4352 217.447 75.0672C217.447 73.7112 218.479 72.7872 219.703 72.7872C220.915 72.7872 221.935 73.7112 221.935 75.0672C221.935 76.4352 220.915 77.3712 219.703 77.3712ZM227.544 71.9713C226.548 71.9713 225.792 72.3792 225.312 73.0992V72.1152H224.4V78.0312H225.312V75.1872C225.312 73.6512 226.128 72.8112 227.364 72.8112C228.348 72.8112 229.008 73.5552 229.008 74.6592V78.0312H229.92V74.4912C229.92 72.9912 228.972 71.9713 227.544 71.9713ZM32.297 86.1152H31.385V87.0632C30.857 86.3672 30.017 85.9713 29.033 85.9713C27.461 85.9713 26.081 87.2072 26.081 89.0792C26.081 90.9512 27.461 92.1873 29.033 92.1873C30.017 92.1873 30.857 91.7912 31.385 91.0952V92.0312H32.297V86.1152ZM29.177 91.3712C27.953 91.3712 26.969 90.4832 26.969 89.0792C26.969 87.6632 27.953 86.7752 29.177 86.7752C30.293 86.7752 31.385 87.6632 31.385 89.0792C31.385 90.4832 30.293 91.3712 29.177 91.3712ZM37.5477 85.9713C36.5517 85.9713 35.7957 86.3792 35.3157 87.0992V86.1152H34.4037V92.0312H35.3157V89.1872C35.3157 87.6512 36.1317 86.8112 37.3677 86.8112C38.3517 86.8112 39.0117 87.5552 39.0117 88.6592V92.0312H39.9237V88.4912C39.9237 86.9912 38.9757 85.9713 37.5477 85.9713ZM47.5679 83.3912H46.6559V87.0632C46.1279 86.3672 45.2879 85.9713 44.3039 85.9713C42.7319 85.9713 41.3519 87.2072 41.3519 89.0792C41.3519 90.9512 42.7319 92.1873 44.3039 92.1873C45.2879 92.1873 46.1279 91.7912 46.6559 91.0952V92.0312H47.5679V83.3912ZM44.4479 91.3712C43.2239 91.3712 42.2399 90.4832 42.2399 89.0792C42.2399 87.6632 43.2239 86.7752 44.4479 86.7752C45.5639 86.7752 46.6559 87.6632 46.6559 89.0792C46.6559 90.4832 45.5639 91.3712 44.4479 91.3712ZM58.1923 86.1152H57.3043V86.9312C56.8243 86.3192 56.0683 85.9713 55.0843 85.9713C53.5243 85.9713 52.1683 87.1472 52.1683 88.8152C52.1683 90.4952 53.5243 91.6832 55.0843 91.6832C56.0683 91.6832 56.8243 91.3352 57.3043 90.7112V91.4312C57.3043 92.6913 56.4763 93.4833 55.2283 93.4833C54.1243 93.4833 53.5243 93.0393 53.1043 92.2473L52.3363 92.7753C52.7923 93.7353 53.7643 94.3113 55.2283 94.3113C57.0163 94.3113 58.1923 93.2793 58.2043 91.5512L58.1923 86.1152ZM55.2163 90.8912C54.0163 90.8912 53.0563 90.0752 53.0563 88.8152C53.0563 87.5552 54.0163 86.7632 55.2163 86.7632C56.3203 86.7632 57.3043 87.5552 57.3043 88.8152C57.3043 90.0752 56.3203 90.8912 55.2163 90.8912ZM65.7261 88.9232C65.6661 87.1592 64.4181 85.9713 62.8221 85.9713C61.1901 85.9713 59.7621 87.1952 59.7621 89.0912C59.7621 90.9752 61.1901 92.1873 62.7621 92.1873C64.0941 92.1873 65.1261 91.5392 65.5941 90.3032L64.7781 90.1112C64.3581 91.0592 63.6021 91.3832 62.7621 91.3832C61.7421 91.3832 60.7341 90.5912 60.6501 89.2592H65.7261V88.9232ZM62.8221 86.7752C63.8061 86.7752 64.6341 87.4112 64.8021 88.5752H60.6861C60.8661 87.4112 61.8621 86.7752 62.8221 86.7752ZM70.5502 90.9632C70.2502 91.1792 69.8782 91.3232 69.5422 91.3232C68.8822 91.3232 68.4502 90.8912 68.4502 90.1232V86.8832H70.5622V86.1152H68.4502V84.2312H67.5262V86.1152H66.2422V86.8832H67.5262V90.1832C67.5262 91.4912 68.3062 92.1873 69.4822 92.1873C69.9622 92.1873 70.3702 92.0553 70.8502 91.7192L70.5502 90.9632ZM75.5963 83.7152C75.2363 83.7152 74.9723 84.0032 74.9723 84.3272C74.9723 84.6752 75.2363 84.9392 75.5963 84.9392C75.9563 84.9392 76.2323 84.6752 76.2323 84.3272C76.2323 84.0032 75.9563 83.7152 75.5963 83.7152ZM76.0643 92.0312V86.1152H75.1403V92.0312H76.0643ZM81.4109 85.9713C80.4149 85.9713 79.6589 86.3792 79.1789 87.0992V86.1152H78.2669V92.0312H79.1789V89.1872C79.1789 87.6512 79.9949 86.8112 81.2309 86.8112C82.2149 86.8112 82.8749 87.5552 82.8749 88.6592V92.0312H83.7869V88.4912C83.7869 86.9912 82.8389 85.9713 81.4109 85.9713ZM89.0072 90.9632C88.7072 91.1792 88.3352 91.3232 87.9992 91.3232C87.3392 91.3232 86.9072 90.8912 86.9072 90.1232V86.8832H89.0192V86.1152H86.9072V84.2312H85.9832V86.1152H84.6992V86.8832H85.9832V90.1832C85.9832 91.4912 86.7632 92.1873 87.9392 92.1873C88.4192 92.1873 88.8272 92.0553 89.3072 91.7192L89.0072 90.9632ZM95.7261 88.9232C95.6661 87.1592 94.4181 85.9713 92.8221 85.9713C91.1901 85.9713 89.7621 87.1952 89.7621 89.0912C89.7621 90.9752 91.1901 92.1873 92.7621 92.1873C94.0941 92.1873 95.1261 91.5392 95.5941 90.3032L94.7781 90.1112C94.3581 91.0592 93.6021 91.3832 92.7621 91.3832C91.7421 91.3832 90.7341 90.5912 90.6501 89.2592H95.7261V88.9232ZM92.8221 86.7752C93.8061 86.7752 94.6341 87.4112 94.8021 88.5752H90.6861C90.8661 87.4112 91.8621 86.7752 92.8221 86.7752ZM100.598 86.0552C99.5062 86.0552 98.7022 86.6912 98.2222 87.5672V86.1152H97.2982V92.0312H98.2222V89.7512C98.2222 88.1552 99.0262 86.9672 100.598 86.9672C100.706 86.9672 100.838 86.9672 100.946 86.9792L101.018 86.1032C100.85 86.0552 100.742 86.0552 100.598 86.0552ZM107.515 88.9232C107.455 87.1592 106.207 85.9713 104.611 85.9713C102.979 85.9713 101.551 87.1952 101.551 89.0912C101.551 90.9752 102.979 92.1873 104.551 92.1873C105.883 92.1873 106.915 91.5392 107.383 90.3032L106.567 90.1112C106.147 91.0592 105.391 91.3832 104.551 91.3832C103.531 91.3832 102.523 90.5912 102.439 89.2592H107.515V88.9232ZM104.611 86.7752C105.595 86.7752 106.423 87.4112 106.591 88.5752H102.475C102.655 87.4112 103.651 86.7752 104.611 86.7752ZM108.583 90.4352C108.727 91.5872 109.807 92.1873 111.163 92.1873C112.579 92.1873 113.551 91.5272 113.551 90.3632C113.551 89.4632 112.891 89.0072 112.027 88.8152L110.599 88.5033C110.023 88.3712 109.699 88.1552 109.699 87.6872C109.699 87.1232 110.167 86.7152 111.007 86.7152C111.883 86.7152 112.447 87.1592 112.567 87.8072L113.443 87.6152C113.227 86.6552 112.363 85.9713 111.031 85.9713C109.675 85.9713 108.787 86.6912 108.787 87.7592C108.787 88.5752 109.339 89.0672 110.323 89.2712L111.679 89.5712C112.279 89.7032 112.651 89.9312 112.651 90.4232C112.651 91.0352 112.087 91.4312 111.235 91.4312C110.299 91.4312 109.579 91.0112 109.495 90.2312L108.583 90.4352ZM118.41 90.9632C118.11 91.1792 117.738 91.3232 117.402 91.3232C116.742 91.3232 116.31 90.8912 116.31 90.1232V86.8832H118.422V86.1152H116.31V84.2312H115.386V86.1152H114.102V86.8832H115.386V90.1832C115.386 91.4912 116.166 92.1873 117.342 92.1873C117.822 92.1873 118.23 92.0553 118.71 91.7192L118.41 90.9632ZM126.168 85.9713C125.184 85.9713 124.344 86.3672 123.816 87.0632V86.1152H122.904V94.0713H123.816V91.0952C124.344 91.7912 125.184 92.1873 126.168 92.1873C127.74 92.1873 129.12 90.9512 129.12 89.0792C129.12 87.2072 127.74 85.9713 126.168 85.9713ZM126.024 91.3712C124.908 91.3712 123.816 90.4832 123.816 89.0792C123.816 87.6632 124.908 86.7752 126.024 86.7752C127.248 86.7752 128.232 87.6632 128.232 89.0792C128.232 90.4832 127.248 91.3712 126.024 91.3712ZM136.313 86.1152H135.401V87.0632C134.873 86.3672 134.033 85.9713 133.049 85.9713C131.477 85.9713 130.097 87.2072 130.097 89.0792C130.097 90.9512 131.477 92.1873 133.049 92.1873C134.033 92.1873 134.873 91.7912 135.401 91.0952V92.0312H136.313V86.1152ZM133.193 91.3712C131.969 91.3712 130.985 90.4832 130.985 89.0792C130.985 87.6632 131.969 86.7752 133.193 86.7752C134.309 86.7752 135.401 87.6632 135.401 89.0792C135.401 90.4832 134.309 91.3712 133.193 91.3712ZM138.971 83.7152C138.611 83.7152 138.347 84.0032 138.347 84.3272C138.347 84.6752 138.611 84.9392 138.971 84.9392C139.331 84.9392 139.607 84.6752 139.607 84.3272C139.607 84.0032 139.331 83.7152 138.971 83.7152ZM139.439 92.0312V86.1152H138.515V92.0312H139.439ZM147.318 83.3912H146.406V87.0632C145.878 86.3672 145.038 85.9713 144.054 85.9713C142.482 85.9713 141.102 87.2072 141.102 89.0792C141.102 90.9512 142.482 92.1873 144.054 92.1873C145.038 92.1873 145.878 91.7912 146.406 91.0952V92.0312H147.318V83.3912ZM144.198 91.3712C142.974 91.3712 141.99 90.4832 141.99 89.0792C141.99 87.6632 142.974 86.7752 144.198 86.7752C145.314 86.7752 146.406 87.6632 146.406 89.0792C146.406 90.4832 145.314 91.3712 144.198 91.3712ZM157.846 86.1152H156.922V88.9592C156.922 90.4952 156.106 91.3232 154.87 91.3232C153.886 91.3232 153.238 90.5912 153.238 89.4872V86.1152H152.314V89.6552C152.314 91.1552 153.262 92.1753 154.69 92.1753C155.674 92.1753 156.442 91.7672 156.922 91.0592V92.0192H157.846V86.1152ZM163.211 85.9713C162.227 85.9713 161.387 86.3672 160.859 87.0632V86.1152H159.947V94.0713H160.859V91.0952C161.387 91.7912 162.227 92.1873 163.211 92.1873C164.783 92.1873 166.163 90.9512 166.163 89.0792C166.163 87.2072 164.783 85.9713 163.211 85.9713ZM163.067 91.3712C161.951 91.3712 160.859 90.4832 160.859 89.0792C160.859 87.6632 161.951 86.7752 163.067 86.7752C164.291 86.7752 165.275 87.6632 165.275 89.0792C165.275 90.4832 164.291 91.3712 163.067 91.3712ZM170.957 86.8832V86.1152H168.809V85.2392C168.809 84.4832 169.265 84.0152 169.985 84.0152C170.201 84.0152 170.441 84.0632 170.657 84.1472L170.885 83.4032C170.597 83.2592 170.273 83.1872 169.925 83.1872C168.689 83.1872 167.897 83.9912 167.897 85.2392V86.1152H166.865V86.8832H167.897V92.0312H168.809V86.8832H170.957ZM175.258 86.0552C174.166 86.0552 173.362 86.6912 172.882 87.5672V86.1152H171.958V92.0312H172.882V89.7512C172.882 88.1552 173.686 86.9672 175.258 86.9672C175.366 86.9672 175.498 86.9672 175.606 86.9792L175.678 86.1032C175.51 86.0552 175.402 86.0552 175.258 86.0552ZM179.355 85.9832C177.591 85.9832 176.211 87.2552 176.211 89.0672C176.211 90.8792 177.591 92.1753 179.355 92.1753C181.095 92.1753 182.487 90.8792 182.487 89.0672C182.487 87.2552 181.095 85.9832 179.355 85.9832ZM179.355 91.3712C178.131 91.3712 177.099 90.4352 177.099 89.0672C177.099 87.7112 178.131 86.7872 179.355 86.7872C180.567 86.7872 181.587 87.7112 181.587 89.0672C181.587 90.4352 180.567 91.3712 179.355 91.3712ZM187.196 85.9713C186.2 85.9713 185.444 86.3792 184.964 87.0992V86.1152H184.052V92.0312H184.964V89.1872C184.964 87.6512 185.78 86.8112 187.016 86.8112C188 86.8112 188.66 87.5552 188.66 88.6592V92.0312H189.572V88.4912C189.572 86.9912 188.624 85.9713 187.196 85.9713ZM194.792 90.9632C194.492 91.1792 194.12 91.3232 193.784 91.3232C193.124 91.3232 192.692 90.8912 192.692 90.1232V86.8832H194.804V86.1152H192.692V84.2312H191.768V86.1152H190.484V86.8832H191.768V90.1832C191.768 91.4912 192.548 92.1873 193.724 92.1873C194.204 92.1873 194.612 92.0553 195.092 91.7192L194.792 90.9632ZM196.431 90.8552C196.071 90.8552 195.807 91.1432 195.807 91.4672C195.807 91.8032 196.071 92.0673 196.431 92.0673C196.791 92.0673 197.055 91.8032 197.055 91.4672C197.055 91.1432 196.791 90.8552 196.431 90.8552Z" fill="#1A1A38"/>
</g>
<defs>
<filter id="filter0_d_10669_33744" x="0" y="0" width="260.188" height="115.656" filterUnits="userSpaceOnUse" color-interpolation-filters="sRGB">
<feFlood flood-opacity="0" result="BackgroundImageFix"/>
<feColorMatrix in="SourceAlpha" type="matrix" values="0 0 0 0 0 0 0 0 0 0 0 0 0 0 0 0 0 0 127 0" result="hardAlpha"/>
<feOffset dx="-6"/>
<feGaussianBlur stdDeviation="3.5"/>
<feComposite in2="hardAlpha" operator="out"/>
<feColorMatrix type="matrix" values="0 0 0 0 0 0 0 0 0 0 0 0 0 0 0 0 0 0 0.07 0"/>
<feBlend mode="normal" in2="BackgroundImageFix" result="effect1_dropShadow_10669_33744"/>
<feBlend mode="normal" in="SourceGraphic" in2="effect1_dropShadow_10669_33744" result="shape"/>
</filter>
</defs>
</svg>
