<svg width="289" height="324" viewBox="0 0 289 324" fill="none" xmlns="http://www.w3.org/2000/svg">
<g filter="url(#filter0_d_10669_33743)">
<rect x="20" y="26" width="236.795" height="272.396" rx="12.9315" fill="white" shape-rendering="crispEdges"/>
<g clip-path="url(#clip0_10669_33743)">
<path d="M104.628 125.744C122.266 125.744 136.564 111.664 136.564 94.2957C136.564 76.9274 122.266 62.8477 104.628 62.8477C86.9905 62.8477 72.6924 76.9274 72.6924 94.2957C72.6924 111.664 86.9905 125.744 104.628 125.744Z" fill="#E6E6E6"/>
<path d="M131.089 94.2957C131.093 98.0667 130.265 101.792 128.664 105.206C128.615 105.312 128.564 105.417 128.513 105.522C126.064 110.538 122.086 114.647 117.151 117.256C117.048 117.31 116.944 117.365 116.841 117.417C113.062 119.355 108.875 120.361 104.628 120.353C103.155 120.354 101.684 120.234 100.231 119.995C100.115 119.976 99.9991 119.957 99.885 119.935C94.446 118.968 89.4447 116.326 85.5789 112.38C85.4982 112.297 85.4175 112.213 85.335 112.129C81.6326 108.264 79.2228 103.344 78.439 98.049C78.4232 97.9332 78.4057 97.8174 78.3916 97.7016C77.6764 92.3184 78.6792 86.8468 81.2571 82.0671C81.3115 81.9636 81.3694 81.8601 81.4255 81.7583C83.411 78.2127 86.1905 75.1749 89.5463 72.883C89.6428 72.8163 89.7393 72.7514 89.8358 72.6865C93.0784 70.5304 96.7553 69.1137 100.606 68.5366C100.722 68.5208 100.838 68.5033 100.954 68.4875C102.171 68.3209 103.399 68.2376 104.628 68.2383C108.498 68.232 112.323 69.0672 115.839 70.6861C115.946 70.7353 116.051 70.7844 116.156 70.8353C119.444 72.4041 122.373 74.6346 124.76 77.3874C124.837 77.4751 124.914 77.5646 124.988 77.6541C127.872 81.0584 129.823 85.1537 130.649 89.5387V89.5404C130.671 89.6545 130.691 89.7686 130.71 89.8844C130.963 91.3412 131.09 92.8171 131.089 94.2957Z" fill="white"/>
<path d="M107.24 92.3162C107.604 92.7675 107.841 93.3084 107.925 93.8823L120.674 91.4776C120.171 88.7672 118.97 86.2346 117.191 84.1289L107.24 92.3162Z" fill="#0267FD"/>
<path d="M121.075 91.698C121.059 91.5822 121.038 91.4681 121.017 91.3541V91.3523C120.503 88.5836 119.278 85.9961 117.462 83.844C117.387 83.7545 117.309 83.665 117.232 83.579C115.768 81.9111 113.987 80.5511 111.993 79.5783H111.991C111.886 79.5274 111.782 79.4765 111.675 79.4274C108.749 78.0839 105.501 77.6047 102.312 78.0464C102.196 78.0604 102.08 78.078 101.964 78.0973C99.6538 78.463 97.446 79.3107 95.4844 80.5855C95.3861 80.6486 95.2879 80.7136 95.1913 80.7802C93.0373 82.2405 91.2569 84.1868 89.9939 86.462C89.9377 86.5638 89.8816 86.6673 89.8254 86.7726C88.2478 89.7753 87.6548 93.1983 88.1304 96.5568C88.1444 96.6744 88.162 96.7902 88.183 96.9042C88.7142 100.14 90.2123 103.138 92.4803 105.506C92.5593 105.59 92.64 105.674 92.7242 105.757C95.1116 108.163 98.1747 109.786 101.507 110.41C101.622 110.433 101.738 110.452 101.854 110.472C105.405 111.061 109.051 110.502 112.261 108.875C112.365 108.822 112.466 108.768 112.57 108.712H112.572C115.607 107.088 118.063 104.561 119.599 101.481C119.652 101.375 119.703 101.27 119.752 101.165C121.138 98.215 121.6 94.9148 121.075 91.698L121.075 91.698ZM119.433 101.019C119.383 101.126 119.333 101.231 119.28 101.335C117.774 104.345 115.372 106.814 112.405 108.403C112.301 108.457 112.198 108.512 112.094 108.564C108.954 110.156 105.387 110.703 101.914 110.124C101.798 110.107 101.68 110.087 101.566 110.065C98.3103 109.454 95.3168 107.868 92.9822 105.518C92.8979 105.436 92.8172 105.351 92.7365 105.267C90.5204 102.953 89.0545 100.023 88.5305 96.8621C88.5112 96.7481 88.4936 96.6322 88.4778 96.5164C88.0128 93.2305 88.5923 89.8815 90.1343 86.9428C90.1869 86.8392 90.2431 86.7357 90.301 86.6322C91.5394 84.4028 93.285 82.4961 95.3966 81.0663C95.4931 80.9996 95.5897 80.9347 95.6879 80.8732C97.6036 79.6306 99.7585 78.8033 102.014 78.4447C102.128 78.4254 102.244 78.4079 102.361 78.3938C105.482 77.9616 108.661 78.431 111.524 79.7467C111.631 79.7941 111.736 79.845 111.84 79.8959C113.789 80.8454 115.531 82.1731 116.962 83.8018C117.039 83.8896 117.116 83.9791 117.19 84.0686C118.969 86.1743 120.17 88.7069 120.673 91.4173C120.694 91.5313 120.714 91.6454 120.731 91.7629C121.241 94.9087 120.788 98.135 119.433 101.019V101.019Z" fill="#CCCCCC"/>
<path d="M103.409 91.6787L103.123 91.8822L95.3971 81.0697L95.1918 80.7837L89.5469 72.884C89.6434 72.8174 89.7399 72.7524 89.8364 72.6875L95.4848 80.5889L95.6883 80.8767L103.409 91.6787Z" fill="#CCCCCC"/>
<path d="M102.028 93.0757L101.858 93.3845L90.1349 86.9447L89.8261 86.7745L81.2578 82.0666C81.3122 81.9631 81.3701 81.8596 81.4263 81.7578L89.9945 86.4639L90.3016 86.6341L102.028 93.0757Z" fill="#CCCCCC"/>
<path d="M101.878 95.3006L88.5303 96.8658L88.1829 96.9079L78.439 98.0502C78.4232 97.9344 78.4056 97.8186 78.3916 97.7027L88.1302 96.5604L88.4777 96.5201L101.838 94.9531L101.878 95.3006Z" fill="#CCCCCC"/>
<path d="M102.74 96.4767L92.982 105.519L92.724 105.757L85.5789 112.378C85.4981 112.295 85.4174 112.211 85.335 112.127L92.4801 105.506L92.7363 105.268L102.501 96.2188L102.74 96.4767Z" fill="#CCCCCC"/>
<path d="M116.156 70.8366L111.992 79.5821H111.99L111.839 79.8997L106.147 91.8563L105.831 91.7054L111.523 79.7505L111.674 79.4312L115.838 70.6875C115.945 70.7366 116.05 70.7858 116.156 70.8366Z" fill="#CCCCCC"/>
<path d="M124.987 77.6534L117.461 83.8458L117.189 84.0704L106.902 92.5351L106.679 92.2649L116.961 83.8037L117.232 83.5808L124.759 77.3867C124.836 77.4745 124.914 77.564 124.987 77.6534Z" fill="#CCCCCC"/>
<path d="M130.71 89.883L121.075 91.6991L120.731 91.764L107.546 94.2505L107.481 93.9065L120.673 91.4184L121.017 91.3552V91.3534L130.649 89.5391C130.672 89.6531 130.691 89.7672 130.71 89.883Z" fill="#CCCCCC"/>
<path d="M128.663 105.206C128.614 105.312 128.563 105.417 128.513 105.522L119.599 101.483L119.279 101.337L107.24 95.8819L107.386 95.5625L119.432 101.021L119.751 101.167L128.663 105.206Z" fill="#CCCCCC"/>
<path d="M117.151 117.257C117.048 117.311 116.944 117.366 116.84 117.418L112.261 108.878L112.094 108.568L105.835 96.8954L106.144 96.7305L112.405 108.406L112.57 108.715H112.571L117.151 117.257Z" fill="#CCCCCC"/>
<path d="M104.119 97.1769L101.913 110.127L101.854 110.474L100.23 119.995C100.115 119.976 99.9988 119.956 99.8848 119.935L101.506 110.413L101.566 110.067L103.771 97.1172L104.119 97.1769Z" fill="#CCCCCC"/>
<path d="M104.218 91.4784L103.871 91.5276L102.013 78.448L101.964 78.1006L100.605 68.5374C100.721 68.5216 100.837 68.5041 100.953 68.4883L102.311 78.0497L102.36 78.3971L104.218 91.4784Z" fill="#CCCCCC"/>
<path d="M104.628 97.5817C106.469 97.5817 107.962 96.1118 107.962 94.2987C107.962 92.4855 106.469 91.0156 104.628 91.0156C102.787 91.0156 101.294 92.4855 101.294 94.2987C101.294 96.1118 102.787 97.5817 104.628 97.5817Z" fill="#0A2240"/>
<path d="M173.211 186.075L170.715 188.164L161.468 179.533L165.151 176.449L173.211 186.075Z" fill="#A0616A"/>
<path d="M175.478 188.604L167.805 195.029L167.723 194.932C167.06 194.14 166.739 193.117 166.83 192.088C166.921 191.058 167.417 190.108 168.209 189.444L168.209 189.444L168.72 187.207L172.226 186.08L172.896 185.52L175.478 188.604Z" fill="#F29747"/>
<path d="M150.914 194.039L147.66 194.039L146.111 181.484L150.915 181.485L150.914 194.039Z" fill="#A0616A"/>
<path d="M151.029 197.437L141.021 197.437V197.31C141.021 196.277 141.431 195.286 142.162 194.555C142.892 193.825 143.883 193.414 144.916 193.414H144.916L146.745 192.027L150.156 193.415L151.029 193.415L151.029 197.437Z" fill="#F29747"/>
<path d="M159.056 133.964C159.842 134.947 159.449 138.288 159.449 138.288L159.642 159.099C162.983 161.851 165.542 173.276 165.542 173.276L168.733 179.146C168.34 180.325 165.789 184.937 165.003 184.741C164.638 184.649 160.097 180.461 157.077 174.251C153.589 167.076 151.586 157.748 151.586 157.748C151.586 157.748 151.98 184.48 151.98 185.659C151.98 186.838 146.672 186.249 145.493 186.249C144.314 186.249 138.243 138.092 138.243 138.092V135.34L139.226 133.964C139.226 133.964 158.269 132.981 159.056 133.964Z" fill="#F29747"/>
<path d="M116.802 89.5321L114.418 90.6444L117.074 90.0882C117.074 90.0882 119.026 90.1677 119.026 89.3732L122.204 87.6252C122.204 87.6252 124.906 89.0553 125.7 88.2608C126.495 87.4663 125.065 85.8772 125.065 85.8772C125.065 85.8772 126.022 85.3492 125.941 85.1365C125.859 84.9238 124.588 85.2416 124.588 85.2416C124.588 85.2416 121.569 83.4936 121.728 86.5128L118.55 88.6199C118.55 88.6199 116.96 88.5786 116.802 89.5321Z" fill="#0A2240"/>
<path d="M160.149 140.768C155.977 142.838 151.014 143.464 146.338 142.915C142.308 142.44 141.47 137.937 137.729 136.339C138.911 132.942 138.925 128.433 138.725 127.168C138.383 125.007 138.32 109.947 139.572 108.378C141.214 106.321 143.721 105.222 143.607 102.592L143.958 102.952C143.514 101.785 144.373 100.449 145.505 99.9204C146.636 99.3923 147.943 99.4593 149.189 99.537C150.239 99.6027 151.289 99.6684 152.338 99.7341C152.201 100.163 152.168 100.618 152.241 101.061C152.315 101.505 152.493 101.925 152.762 102.286C154.622 101.773 156.585 103.137 157.416 104.877C158.247 106.618 158.227 108.628 158.189 110.557C158.146 112.788 159.8 128.462 157.799 129.454C158.831 129.714 160.29 135.218 159.409 134.622C159.817 134.907 159.718 137.573 160.149 140.768Z" fill="#0267FD"/>
<path d="M119.601 86.9427C120.05 86.8105 120.524 86.7785 120.987 86.849C121.451 86.9195 121.893 87.0907 122.283 87.3507C122.673 87.6106 123.002 87.953 123.245 88.3536C123.489 88.7542 123.641 89.2033 123.693 89.6694L141.391 105.231L138.196 107.354L120.629 93.263C119.84 93.297 119.067 93.0406 118.455 92.5424C117.842 92.0441 117.434 91.3386 117.307 90.5596C117.181 89.7805 117.344 88.982 117.767 88.3154C118.189 87.6488 118.842 87.1604 119.601 86.9427Z" fill="#A0616A"/>
<path d="M138.66 100.204C138.272 100.227 129.125 93.5525 128.891 93.862L128.277 97.1958L126.586 99.4316L130.241 103.306L131.285 104.163L131.956 104.872C131.722 105.187 133.28 106.87 133.365 107.254C133.406 107.442 133.487 107.619 133.602 107.773C133.717 107.927 133.864 108.055 134.033 108.147L139.98 111.374C140.773 111.963 141.767 112.213 142.744 112.07C143.721 111.927 144.602 111.402 145.193 110.611C145.784 109.82 146.037 108.827 145.896 107.849C145.756 106.871 145.234 105.99 144.444 105.397L143.567 104.509L142.223 103.147L139.708 100.601C139.572 100.463 139.408 100.356 139.227 100.287C139.046 100.219 138.853 100.191 138.66 100.204Z" fill="#0267FD"/>
<path d="M148.528 97.7746C152.091 97.7746 154.98 94.886 154.98 91.3228C154.98 87.7596 152.091 84.8711 148.528 84.8711C144.965 84.8711 142.076 87.7596 142.076 91.3228C142.076 94.886 144.965 97.7746 148.528 97.7746Z" fill="#A0616A"/>
<path d="M156.224 89.2817C155.865 87.858 154.527 86.6159 153.065 86.7599C153.246 85.6631 152.516 84.5586 151.532 84.0417C150.548 83.5248 149.372 83.5027 148.275 83.6827C147.638 83.7982 147.007 83.9456 146.385 84.1243C145.857 84.2664 143.382 83.419 142.857 83.5736C142.409 83.7059 141.33 85.3125 140.989 85.633C140.649 85.9535 140.469 86.4929 140.696 86.9015C140.921 87.3048 141.434 87.4362 141.894 87.474C142.354 87.5118 142.849 87.5051 143.231 87.7645C143.722 88.0978 143.861 88.7624 143.841 89.3554C143.821 89.9483 143.685 90.5463 143.795 91.1292C143.906 91.7121 144.378 92.2944 144.97 92.2543C145.413 91.7871 146.223 91.8171 146.731 92.2124C146.974 92.4249 147.168 92.6874 147.3 92.982C147.432 93.2765 147.499 93.5962 147.496 93.919C147.486 94.5637 147.386 95.2039 147.199 95.821C147.092 96.2471 147.012 96.7635 147.327 97.069C147.513 97.2172 147.737 97.3105 147.973 97.3386C148.905 97.5364 152.4 97.2681 153.332 97.4659L153.26 97.3237C153.934 96.0197 154.83 94.839 155.493 93.5291C156.156 92.2192 156.582 90.7054 156.224 89.2817Z" fill="#F29747"/>
<path d="M166.127 142.568C165.671 142.459 165.244 142.251 164.877 141.959C164.511 141.667 164.212 141.299 164.003 140.879C163.794 140.459 163.68 139.999 163.668 139.53C163.656 139.062 163.747 138.596 163.935 138.166L156.328 115.86L160.157 115.609L168.38 136.574C169.081 136.937 169.625 137.545 169.908 138.281C170.191 139.018 170.194 139.833 169.916 140.572C169.638 141.311 169.099 141.922 168.4 142.29C167.702 142.658 166.893 142.757 166.127 142.568Z" fill="#A0616A"/>
<path d="M154.567 118.776C154.914 118.95 159.526 129.291 159.883 129.139L162.075 126.553L164.655 125.456L163.413 120.276L162.933 119.013L162.704 118.064C163.064 117.908 162.55 115.672 162.668 115.297C162.726 115.114 162.744 114.92 162.721 114.729C162.698 114.538 162.634 114.354 162.533 114.19L158.981 108.431C158.586 107.526 157.848 106.814 156.93 106.451C156.011 106.089 154.986 106.106 154.08 106.498C153.173 106.891 152.459 107.626 152.095 108.544C151.73 109.462 151.744 110.487 152.134 111.394L152.453 112.6L152.941 114.45L153.855 117.911C153.904 118.098 153.993 118.272 154.116 118.422C154.239 118.571 154.393 118.692 154.567 118.776Z" fill="#0267FD"/>
<path d="M183.999 193.745L182.202 190.856L181.843 192.507C181.78 192.796 181.717 193.09 181.659 193.381C181.148 192.945 180.605 192.542 180.074 192.155C178.442 190.971 176.811 189.785 175.181 188.598L175.691 191.558C176.006 193.381 176.335 195.241 177.113 196.908C177.199 197.097 177.293 197.283 177.393 197.465H184.978C185.039 197.296 185.081 197.121 185.104 196.943C185.106 196.931 185.107 196.92 185.106 196.908C185.225 195.777 184.601 194.712 183.999 193.745Z" fill="#F0F0F0"/>
<path d="M190.418 197.747L126.139 197.818C126.065 197.818 125.995 197.789 125.943 197.737C125.891 197.685 125.861 197.614 125.861 197.541C125.861 197.467 125.891 197.396 125.943 197.344C125.995 197.292 126.065 197.263 126.139 197.263L190.418 197.191C190.455 197.191 190.491 197.198 190.525 197.212C190.558 197.226 190.589 197.247 190.615 197.272C190.641 197.298 190.661 197.329 190.675 197.363C190.689 197.396 190.696 197.432 190.696 197.469C190.696 197.505 190.689 197.542 190.675 197.575C190.661 197.609 190.641 197.64 190.615 197.666C190.589 197.691 190.558 197.712 190.525 197.726C190.491 197.74 190.455 197.747 190.418 197.747Z" fill="#CACACA"/>
</g>
<path d="M60.2953 205.802C58.2651 205.802 56.9978 206.888 56.9978 208.44C56.9978 210.134 58.2392 210.703 59.2738 210.923L61.11 211.272C61.8859 211.427 62.1187 211.725 62.1187 212.216C62.1187 212.837 61.5885 213.315 60.5798 213.315C59.597 213.315 58.8729 212.889 58.6401 211.906L56.7909 212.281C57.0107 214.014 58.6013 214.854 60.4117 214.854C62.4678 214.854 63.8515 213.807 63.8515 212.126C63.8515 210.781 62.9851 209.94 61.5756 209.643L59.7134 209.268C59.041 209.138 58.847 208.828 58.847 208.388C58.847 207.806 59.3772 207.315 60.2565 207.315C61.123 207.315 61.8342 207.845 61.9635 208.66L63.7222 208.298C63.386 206.759 62.054 205.802 60.2953 205.802ZM69.4749 212.953C69.1387 213.134 68.699 213.264 68.4016 213.264C67.8326 213.264 67.4576 212.927 67.4576 212.151V209.604H69.5654V208.207H67.4576V206.255H65.7506V208.207H64.3669V209.604H65.7506V212.281C65.7506 214.052 66.7593 214.854 68.2852 214.854C68.8283 214.854 69.2939 214.738 69.9663 214.376L69.4749 212.953ZM77.2445 208.207H75.5375V208.725C74.9944 208.272 74.2832 208.013 73.4038 208.013C71.7615 208.013 70.2356 209.41 70.2356 211.44C70.2356 213.47 71.7615 214.854 73.4038 214.854C74.2832 214.854 74.9944 214.595 75.5375 214.156V214.66H77.2445V208.207ZM73.7013 213.367C72.6668 213.367 71.8909 212.63 71.8909 211.44C71.8909 210.251 72.6668 209.5 73.7013 209.5C74.6194 209.5 75.5375 210.251 75.5375 211.44C75.5375 212.63 74.6194 213.367 73.7013 213.367ZM83.0715 208.117C82.024 208.117 81.274 208.634 80.7567 209.384V208.207H79.0498V214.66H80.7567V212.578C80.7567 210.781 81.4809 209.811 83.0585 209.811H83.4335L83.5241 208.169C83.3689 208.117 83.2396 208.117 83.0715 208.117ZM88.9227 212.953C88.5864 213.134 88.1468 213.264 87.8494 213.264C87.2804 213.264 86.9054 212.927 86.9054 212.151V209.604H89.0132V208.207H86.9054V206.255H85.1984V208.207H83.8147V209.604H85.1984V212.281C85.1984 214.052 86.207 214.854 87.733 214.854C88.2761 214.854 88.7416 214.738 89.4141 214.376L88.9227 212.953ZM101.153 214.66L98.2432 211.44C99.7561 211.22 100.726 210.186 100.726 208.738C100.726 207.095 99.4846 205.996 97.6224 205.996H93.4714V214.66H95.2301V211.479H96.1482L99.0061 214.66H101.153ZM95.2301 209.888V207.587H97.6224C98.4371 207.587 98.9802 208.052 98.9802 208.738C98.9802 209.423 98.4371 209.888 97.6224 209.888H95.2301ZM108.023 211.311C107.959 209.345 106.471 208.013 104.752 208.013C102.902 208.013 101.415 209.41 101.415 211.44C101.415 213.47 102.902 214.854 104.726 214.854C106.135 214.854 107.286 214.208 107.855 212.863L106.329 212.539C105.864 213.328 105.23 213.393 104.726 213.393C103.937 213.393 103.277 212.824 103.109 211.893H108.023V211.311ZM104.752 209.5C105.437 209.5 106.058 209.863 106.277 210.69H103.161C103.368 209.888 104.105 209.5 104.752 209.5ZM115.812 208.207H114.105V208.725C113.562 208.272 112.85 208.013 111.971 208.013C110.329 208.013 108.803 209.41 108.803 211.44C108.803 213.47 110.329 214.854 111.971 214.854C112.85 214.854 113.562 214.595 114.105 214.156V214.66H115.812V208.207ZM112.268 213.367C111.234 213.367 110.458 212.63 110.458 211.44C110.458 210.251 111.234 209.5 112.268 209.5C113.187 209.5 114.105 210.251 114.105 211.44C114.105 212.63 113.187 213.367 112.268 213.367ZM120.552 213.289C119.479 213.289 118.755 212.552 118.755 211.44C118.755 210.341 119.479 209.578 120.552 209.578C121.302 209.578 121.91 209.953 122.143 210.858L123.785 210.393C123.359 208.944 122.052 208.013 120.552 208.013C118.664 208.013 117.1 209.41 117.1 211.44C117.1 213.47 118.664 214.854 120.552 214.854C122.091 214.854 123.423 213.91 123.785 212.436L122.208 212.035C121.91 212.927 121.302 213.289 120.552 213.289ZM128.818 208.013C127.964 208.013 127.292 208.285 126.787 208.789V205.349H125.08V214.66H126.787V211.802C126.787 210.225 127.421 209.578 128.391 209.578C129.18 209.578 129.697 210.186 129.697 211.091V214.66H131.404V210.729C131.404 209.125 130.369 208.013 128.818 208.013ZM134.006 205.259C133.398 205.259 132.971 205.737 132.971 206.281C132.971 206.85 133.398 207.276 134.006 207.276C134.6 207.276 135.04 206.85 135.04 206.281C135.04 205.737 134.6 205.259 134.006 205.259ZM134.859 214.66V208.207H133.152V214.66H134.859ZM140.499 208.013C139.645 208.013 138.973 208.285 138.469 208.789V208.207H136.762V214.66H138.469V211.802C138.469 210.225 139.102 209.578 140.072 209.578C140.861 209.578 141.378 210.186 141.378 211.091V214.66H143.085V210.729C143.085 209.125 142.051 208.013 140.499 208.013ZM151.015 208.207H149.373V208.608C148.894 208.233 148.235 208.013 147.342 208.013C145.726 208.013 144.213 209.371 144.213 211.13C144.213 212.901 145.726 214.272 147.342 214.272C148.235 214.272 148.894 214.065 149.373 213.677V213.781C149.373 214.906 148.661 215.578 147.575 215.578C146.735 215.578 146.321 215.281 145.816 214.647L144.433 215.695C144.989 216.587 146.075 217.117 147.575 217.117C149.657 217.117 151.028 216.018 151.028 214.039L151.015 208.207ZM147.64 212.811C146.618 212.811 145.855 212.139 145.855 211.13C145.855 210.121 146.618 209.449 147.64 209.449C148.545 209.449 149.373 210.121 149.373 211.13C149.373 212.139 148.545 212.811 147.64 212.811ZM160.392 211.893L163.883 205.996H161.866L159.512 210.082L157.146 205.996H155.206L158.633 211.919V214.66H160.392V211.893ZM166.37 208.052C164.443 208.052 162.852 209.41 162.852 211.44C162.852 213.47 164.443 214.828 166.37 214.828C168.258 214.828 169.848 213.47 169.848 211.44C169.848 209.41 168.258 208.052 166.37 208.052ZM166.37 213.367C165.439 213.367 164.508 212.643 164.508 211.44C164.508 210.238 165.439 209.513 166.37 209.513C167.262 209.513 168.193 210.238 168.193 211.44C168.193 212.643 167.262 213.367 166.37 213.367ZM177.292 208.207H175.585V211.065C175.585 212.643 174.951 213.289 173.981 213.289C173.192 213.289 172.675 212.682 172.675 211.776V208.207H170.968V212.139C170.968 213.742 172.003 214.854 173.554 214.854C174.408 214.854 175.08 214.583 175.585 214.078V214.66H177.292V208.207ZM183.126 208.117C182.079 208.117 181.329 208.634 180.812 209.384V208.207H179.105V214.66H180.812V212.578C180.812 210.781 181.536 209.811 183.114 209.811H183.489L183.579 208.169C183.424 208.117 183.295 208.117 183.126 208.117ZM191.621 209.604V211.207H194.66C194.362 212.436 193.38 213.212 192.061 213.212C190.444 213.212 189.19 211.97 189.19 210.328C189.19 208.699 190.405 207.457 191.957 207.457C192.901 207.457 193.91 207.755 194.543 208.97L196.121 208.414C195.5 206.656 193.78 205.802 191.957 205.802C189.41 205.802 187.405 207.794 187.405 210.328C187.405 212.876 189.422 214.854 192.009 214.854C194.569 214.854 196.406 212.927 196.406 210.354C196.406 210.147 196.393 209.901 196.367 209.604H191.621ZM200.833 208.052C198.906 208.052 197.315 209.41 197.315 211.44C197.315 213.47 198.906 214.828 200.833 214.828C202.721 214.828 204.311 213.47 204.311 211.44C204.311 209.41 202.721 208.052 200.833 208.052ZM200.833 213.367C199.902 213.367 198.971 212.643 198.971 211.44C198.971 210.238 199.902 209.513 200.833 209.513C201.725 209.513 202.656 210.238 202.656 211.44C202.656 212.643 201.725 213.367 200.833 213.367ZM212.091 208.207H210.384V208.725C209.841 208.272 209.13 208.013 208.25 208.013C206.608 208.013 205.082 209.41 205.082 211.44C205.082 213.47 206.608 214.854 208.25 214.854C209.13 214.854 209.841 214.595 210.384 214.156V214.66H212.091V208.207ZM208.548 213.367C207.513 213.367 206.737 212.63 206.737 211.44C206.737 210.251 207.513 209.5 208.548 209.5C209.466 209.5 210.384 210.251 210.384 211.44C210.384 212.63 209.466 213.367 208.548 213.367ZM215.603 214.66V205.349H213.896V214.66H215.603ZM216.876 212.953C217.044 214.298 218.35 214.854 219.773 214.854C221.454 214.854 222.605 214.117 222.605 212.695C222.605 211.828 222.049 211.117 220.911 210.871L219.372 210.535C218.868 210.419 218.79 210.199 218.79 209.992C218.79 209.694 218.984 209.358 219.669 209.358C220.381 209.358 220.833 209.733 220.898 210.251L222.527 209.927C222.308 208.802 221.247 208.013 219.721 208.013C218.092 208.013 217.083 208.906 217.083 210.147C217.083 211.078 217.743 211.738 218.907 211.983L220.226 212.255C220.782 212.371 220.937 212.604 220.937 212.837C220.937 213.199 220.562 213.483 219.928 213.483C219.256 213.483 218.687 213.264 218.596 212.604L216.876 212.953Z" fill="#0A2240"/>
<path d="M47.2106 243.136H42.6026V235.96H41.6546V244H47.2106V243.136ZM54.1099 240.892C54.0499 239.128 52.8019 237.94 51.2059 237.94C49.5739 237.94 48.1459 239.164 48.1459 241.06C48.1459 242.944 49.5739 244.156 51.1459 244.156C52.4779 244.156 53.5099 243.508 53.9779 242.272L53.1619 242.08C52.7419 243.028 51.9859 243.352 51.1459 243.352C50.1259 243.352 49.1179 242.56 49.0339 241.228H54.1099V240.892ZM51.2059 238.744C52.1899 238.744 53.0179 239.38 53.1859 240.544H49.0699C49.2499 239.38 50.2459 238.744 51.2059 238.744ZM58.934 242.932C58.634 243.148 58.262 243.292 57.926 243.292C57.266 243.292 56.834 242.86 56.834 242.092V238.852H58.946V238.084H56.834V236.2H55.91V238.084H54.626V238.852H55.91V242.152C55.91 243.46 56.69 244.156 57.866 244.156C58.346 244.156 58.754 244.024 59.234 243.688L58.934 242.932ZM68.8161 238.084H67.8921V240.928C67.8921 242.464 67.0761 243.292 65.8401 243.292C64.8561 243.292 64.2081 242.56 64.2081 241.456V238.084H63.2841V241.624C63.2841 243.124 64.2321 244.144 65.6601 244.144C66.6441 244.144 67.4121 243.736 67.8921 243.028V243.988H68.8161V238.084ZM70.3186 242.404C70.4626 243.556 71.5426 244.156 72.8986 244.156C74.3146 244.156 75.2866 243.496 75.2866 242.332C75.2866 241.432 74.6266 240.976 73.7626 240.784L72.3346 240.472C71.7586 240.34 71.4346 240.124 71.4346 239.656C71.4346 239.092 71.9026 238.684 72.7426 238.684C73.6186 238.684 74.1826 239.128 74.3026 239.776L75.1786 239.584C74.9626 238.624 74.0986 237.94 72.7666 237.94C71.4106 237.94 70.5226 238.66 70.5226 239.728C70.5226 240.544 71.0746 241.036 72.0586 241.24L73.4146 241.54C74.0146 241.672 74.3866 241.9 74.3866 242.392C74.3866 243.004 73.8226 243.4 72.9706 243.4C72.0346 243.4 71.3146 242.98 71.2306 242.2L70.3186 242.404ZM83.0604 237.94C82.0644 237.94 81.3084 238.348 80.8284 239.068V235.36H79.9164V244H80.8284V241.156C80.8284 239.62 81.6444 238.78 82.8804 238.78C83.8644 238.78 84.5244 239.524 84.5244 240.628V244H85.4364V240.46C85.4364 238.96 84.4884 237.94 83.0604 237.94ZM92.8404 240.892C92.7804 239.128 91.5324 237.94 89.9364 237.94C88.3044 237.94 86.8764 239.164 86.8764 241.06C86.8764 242.944 88.3044 244.156 89.8764 244.156C91.2084 244.156 92.2404 243.508 92.7084 242.272L91.8924 242.08C91.4724 243.028 90.7164 243.352 89.8764 243.352C88.8564 243.352 87.8484 242.56 87.7644 241.228H92.8404V240.892ZM89.9364 238.744C90.9204 238.744 91.7484 239.38 91.9164 240.544H87.8004C87.9804 239.38 88.9764 238.744 89.9364 238.744ZM95.3244 244V235.36H94.4124V244H95.3244ZM100.7 237.94C99.7159 237.94 98.8759 238.336 98.3479 239.032V238.084H97.4359V246.04H98.3479V243.064C98.8759 243.76 99.7159 244.156 100.7 244.156C102.272 244.156 103.652 242.92 103.652 241.048C103.652 239.176 102.272 237.94 100.7 237.94ZM100.556 243.34C99.4399 243.34 98.3479 242.452 98.3479 241.048C98.3479 239.632 99.4399 238.744 100.556 238.744C101.78 238.744 102.764 239.632 102.764 241.048C102.764 242.452 101.78 243.34 100.556 243.34ZM113.736 238.084H112.716L110.556 242.812L108.444 238.084H107.412L110.064 243.916L109.092 246.04H110.112L113.736 238.084ZM117.431 237.952C115.667 237.952 114.287 239.224 114.287 241.036C114.287 242.848 115.667 244.144 117.431 244.144C119.171 244.144 120.563 242.848 120.563 241.036C120.563 239.224 119.171 237.952 117.431 237.952ZM117.431 243.34C116.207 243.34 115.175 242.404 115.175 241.036C115.175 239.68 116.207 238.756 117.431 238.756C118.643 238.756 119.663 239.68 119.663 241.036C119.663 242.404 118.643 243.34 117.431 243.34ZM127.515 238.084H126.591V240.928C126.591 242.464 125.775 243.292 124.539 243.292C123.555 243.292 122.907 242.56 122.907 241.456V238.084H121.983V241.624C121.983 243.124 122.931 244.144 124.359 244.144C125.343 244.144 126.111 243.736 126.591 243.028V243.988H127.515V238.084ZM132.135 242.404C132.279 243.556 133.359 244.156 134.715 244.156C136.131 244.156 137.103 243.496 137.103 242.332C137.103 241.432 136.443 240.976 135.579 240.784L134.151 240.472C133.575 240.34 133.251 240.124 133.251 239.656C133.251 239.092 133.719 238.684 134.559 238.684C135.435 238.684 135.999 239.128 136.119 239.776L136.995 239.584C136.779 238.624 135.915 237.94 134.583 237.94C133.227 237.94 132.339 238.66 132.339 239.728C132.339 240.544 132.891 241.036 133.875 241.24L135.231 241.54C135.831 241.672 136.203 241.9 136.203 242.392C136.203 243.004 135.639 243.4 134.787 243.4C133.851 243.4 133.131 242.98 133.047 242.2L132.135 242.404ZM144.325 238.084H143.413V239.032C142.885 238.336 142.045 237.94 141.061 237.94C139.489 237.94 138.109 239.176 138.109 241.048C138.109 242.92 139.489 244.156 141.061 244.156C142.045 244.156 142.885 243.76 143.413 243.064V244H144.325V238.084ZM141.205 243.34C139.981 243.34 138.997 242.452 138.997 241.048C138.997 239.632 139.981 238.744 141.205 238.744C142.321 238.744 143.413 239.632 143.413 241.048C143.413 242.452 142.321 243.34 141.205 243.34ZM151.82 238.084H150.824L148.712 242.92L146.588 238.084H145.592L148.208 244H149.204L151.82 238.084ZM158.325 240.892C158.265 239.128 157.017 237.94 155.421 237.94C153.789 237.94 152.361 239.164 152.361 241.06C152.361 242.944 153.789 244.156 155.361 244.156C156.693 244.156 157.725 243.508 158.193 242.272L157.377 242.08C156.957 243.028 156.201 243.352 155.361 243.352C154.341 243.352 153.333 242.56 153.249 241.228H158.325V240.892ZM155.421 238.744C156.405 238.744 157.233 239.38 157.401 240.544H153.285C153.465 239.38 154.461 238.744 155.421 238.744ZM166.196 238.852V238.084H164.048V237.208C164.048 236.452 164.504 235.984 165.224 235.984C165.44 235.984 165.68 236.032 165.896 236.116L166.124 235.372C165.836 235.228 165.512 235.156 165.164 235.156C163.928 235.156 163.136 235.96 163.136 237.208V238.084H162.104V238.852H163.136V244H164.048V238.852H166.196ZM169.743 237.952C167.979 237.952 166.599 239.224 166.599 241.036C166.599 242.848 167.979 244.144 169.743 244.144C171.483 244.144 172.875 242.848 172.875 241.036C172.875 239.224 171.483 237.952 169.743 237.952ZM169.743 243.34C168.519 243.34 167.487 242.404 167.487 241.036C167.487 239.68 168.519 238.756 169.743 238.756C170.955 238.756 171.975 239.68 171.975 241.036C171.975 242.404 170.955 243.34 169.743 243.34ZM177.74 238.024C176.648 238.024 175.844 238.66 175.364 239.536V238.084H174.44V244H175.364V241.72C175.364 240.124 176.168 238.936 177.74 238.936C177.848 238.936 177.98 238.936 178.088 238.948L178.16 238.072C177.992 238.024 177.884 238.024 177.74 238.024ZM188.025 238.084H187.113V239.032C186.585 238.336 185.745 237.94 184.761 237.94C183.189 237.94 181.809 239.176 181.809 241.048C181.809 242.92 183.189 244.156 184.761 244.156C185.745 244.156 186.585 243.76 187.113 243.064V244H188.025V238.084ZM184.905 243.34C183.681 243.34 182.697 242.452 182.697 241.048C182.697 239.632 183.681 238.744 184.905 238.744C186.021 238.744 187.113 239.632 187.113 241.048C187.113 242.452 186.021 243.34 184.905 243.34ZM193.275 237.94C192.279 237.94 191.523 238.348 191.043 239.068V238.084H190.131V244H191.043V241.156C191.043 239.62 191.859 238.78 193.095 238.78C194.079 238.78 194.739 239.524 194.739 240.628V244H195.651V240.46C195.651 238.96 194.703 237.94 193.275 237.94ZM202.928 238.084H201.908L199.748 242.812L197.636 238.084H196.604L199.256 243.916L198.284 246.04H199.304L202.928 238.084ZM207.457 242.932C207.157 243.148 206.785 243.292 206.449 243.292C205.789 243.292 205.357 242.86 205.357 242.092V238.852H207.469V238.084H205.357V236.2H204.433V238.084H203.149V238.852H204.433V242.152C204.433 243.46 205.213 244.156 206.389 244.156C206.869 244.156 207.277 244.024 207.757 243.688L207.457 242.932ZM212.072 237.94C211.076 237.94 210.32 238.348 209.84 239.068V235.36H208.928V244H209.84V241.156C209.84 239.62 210.656 238.78 211.892 238.78C212.876 238.78 213.536 239.524 213.536 240.628V244H214.448V240.46C214.448 238.96 213.5 237.94 212.072 237.94ZM216.98 235.684C216.62 235.684 216.356 235.972 216.356 236.296C216.356 236.644 216.62 236.908 216.98 236.908C217.34 236.908 217.616 236.644 217.616 236.296C217.616 235.972 217.34 235.684 216.98 235.684ZM217.448 244V238.084H216.524V244H217.448ZM222.795 237.94C221.799 237.94 221.043 238.348 220.563 239.068V238.084H219.651V244H220.563V241.156C220.563 239.62 221.379 238.78 222.615 238.78C223.599 238.78 224.259 239.524 224.259 240.628V244H225.171V240.46C225.171 238.96 224.223 237.94 222.795 237.94ZM232.623 238.084H231.735V238.9C231.255 238.288 230.499 237.94 229.515 237.94C227.955 237.94 226.599 239.116 226.599 240.784C226.599 242.464 227.955 243.652 229.515 243.652C230.499 243.652 231.255 243.304 231.735 242.68V243.4C231.735 244.66 230.907 245.452 229.659 245.452C228.555 245.452 227.955 245.008 227.535 244.216L226.767 244.744C227.223 245.704 228.195 246.28 229.659 246.28C231.447 246.28 232.623 245.248 232.635 243.52L232.623 238.084ZM229.647 242.86C228.447 242.86 227.487 242.044 227.487 240.784C227.487 239.524 228.447 238.732 229.647 238.732C230.751 238.732 231.735 239.524 231.735 240.784C231.735 242.044 230.751 242.86 229.647 242.86ZM234.577 245.584L235.729 242.452V242.428H234.649L233.857 245.584H234.577ZM47.2999 253.084H46.3879V254.032C45.8599 253.336 45.0199 252.94 44.0359 252.94C42.4639 252.94 41.0839 254.176 41.0839 256.048C41.0839 257.92 42.4639 259.156 44.0359 259.156C45.0199 259.156 45.8599 258.76 46.3879 258.064V259H47.2999V253.084ZM44.1799 258.34C42.9559 258.34 41.9719 257.452 41.9719 256.048C41.9719 254.632 42.9559 253.744 44.1799 253.744C45.2959 253.744 46.3879 254.632 46.3879 256.048C46.3879 257.452 45.2959 258.34 44.1799 258.34ZM53.342 259V250.36H52.43V259H53.342ZM56.0055 250.684C55.6455 250.684 55.3815 250.972 55.3815 251.296C55.3815 251.644 55.6455 251.908 56.0055 251.908C56.3655 251.908 56.6415 251.644 56.6415 251.296C56.6415 250.972 56.3655 250.684 56.0055 250.684ZM56.4735 259V253.084H55.5495V259H56.4735ZM61.9281 257.932C61.6281 258.148 61.2561 258.292 60.9201 258.292C60.2601 258.292 59.8281 257.86 59.8281 257.092V253.852H61.9401V253.084H59.8281V251.2H58.9041V253.084H57.6201V253.852H58.9041V257.152C58.9041 258.46 59.6841 259.156 60.8601 259.156C61.3401 259.156 61.7481 259.024 62.2281 258.688L61.9281 257.932ZM66.6508 257.932C66.3508 258.148 65.9788 258.292 65.6428 258.292C64.9828 258.292 64.5508 257.86 64.5508 257.092V253.852H66.6628V253.084H64.5508V251.2H63.6268V253.084H62.3428V253.852H63.6268V257.152C63.6268 258.46 64.4068 259.156 65.5828 259.156C66.0628 259.156 66.4708 259.024 66.9508 258.688L66.6508 257.932ZM69.0334 259V250.36H68.1214V259H69.0334ZM76.5689 255.892C76.5089 254.128 75.2609 252.94 73.6649 252.94C72.0329 252.94 70.6049 254.164 70.6049 256.06C70.6049 257.944 72.0329 259.156 73.6049 259.156C74.9369 259.156 75.9689 258.508 76.4369 257.272L75.6209 257.08C75.2009 258.028 74.4449 258.352 73.6049 258.352C72.5849 258.352 71.5769 257.56 71.4929 256.228H76.5689V255.892ZM73.6649 253.744C74.6489 253.744 75.4769 254.38 75.6449 255.544H71.5289C71.7089 254.38 72.7049 253.744 73.6649 253.744ZM86.7804 253.084H85.8684V254.032C85.3404 253.336 84.5004 252.94 83.5164 252.94C81.9444 252.94 80.5644 254.176 80.5644 256.048C80.5644 257.92 81.9444 259.156 83.5164 259.156C84.5004 259.156 85.3404 258.76 85.8684 258.064V259H86.7804V253.084ZM83.6604 258.34C82.4364 258.34 81.4524 257.452 81.4524 256.048C81.4524 254.632 82.4364 253.744 83.6604 253.744C84.7764 253.744 85.8684 254.632 85.8684 256.048C85.8684 257.452 84.7764 258.34 83.6604 258.34ZM92.1391 257.932C91.8391 258.148 91.4671 258.292 91.1311 258.292C90.4711 258.292 90.0391 257.86 90.0391 257.092V253.852H92.1511V253.084H90.0391V251.2H89.1151V253.084H87.8311V253.852H89.1151V257.152C89.1151 258.46 89.8951 259.156 91.0711 259.156C91.5511 259.156 91.9591 259.024 92.4391 258.688L92.1391 257.932ZM102.249 253.084H101.337V254.032C100.809 253.336 99.9691 252.94 98.9851 252.94C97.4131 252.94 96.0331 254.176 96.0331 256.048C96.0331 257.92 97.4131 259.156 98.9851 259.156C99.9691 259.156 100.809 258.76 101.337 258.064V259H102.249V253.084ZM99.1291 258.34C97.9051 258.34 96.9211 257.452 96.9211 256.048C96.9211 254.632 97.9051 253.744 99.1291 253.744C100.245 253.744 101.337 254.632 101.337 256.048C101.337 257.452 100.245 258.34 99.1291 258.34ZM110.631 257.932C110.331 258.148 109.959 258.292 109.623 258.292C108.963 258.292 108.531 257.86 108.531 257.092V253.852H110.643V253.084H108.531V251.2H107.607V253.084H106.323V253.852H107.607V257.152C107.607 258.46 108.387 259.156 109.563 259.156C110.043 259.156 110.451 259.024 110.931 258.688L110.631 257.932ZM112.654 250.684C112.294 250.684 112.03 250.972 112.03 251.296C112.03 251.644 112.294 251.908 112.654 251.908C113.014 251.908 113.29 251.644 113.29 251.296C113.29 250.972 113.014 250.684 112.654 250.684ZM113.122 259V253.084H112.198V259H113.122ZM122.501 252.94C121.493 252.94 120.725 253.408 120.269 254.14C119.921 253.384 119.165 252.94 118.253 252.94C117.329 252.94 116.657 253.336 116.237 253.984V253.084H115.325V259H116.237V255.976C116.237 254.584 116.945 253.78 118.037 253.78C118.913 253.78 119.549 254.392 119.549 255.328V259H120.461V255.976C120.461 254.584 121.181 253.78 122.273 253.78C123.161 253.78 123.797 254.392 123.797 255.328V259H124.709V255.172C124.709 253.828 123.749 252.94 122.501 252.94ZM132.104 255.892C132.044 254.128 130.796 252.94 129.2 252.94C127.568 252.94 126.14 254.164 126.14 256.06C126.14 257.944 127.568 259.156 129.14 259.156C130.472 259.156 131.504 258.508 131.972 257.272L131.156 257.08C130.736 258.028 129.98 258.352 129.14 258.352C128.12 258.352 127.112 257.56 127.028 256.228H132.104V255.892ZM129.2 253.744C130.184 253.744 131.012 254.38 131.18 255.544H127.064C127.244 254.38 128.24 253.744 129.2 253.744ZM133.215 260.584L134.367 257.452V257.428H133.287L132.495 260.584H133.215ZM146.87 253.084H145.946L144.422 257.668L142.838 253.084H142.106L140.522 257.668L138.998 253.084H138.074L140.066 259.024H140.918L142.478 254.536L144.026 259.024H144.878L146.87 253.084ZM148.689 250.684C148.329 250.684 148.065 250.972 148.065 251.296C148.065 251.644 148.329 251.908 148.689 251.908C149.049 251.908 149.325 251.644 149.325 251.296C149.325 250.972 149.049 250.684 148.689 250.684ZM149.157 259V253.084H148.233V259H149.157ZM154.612 257.932C154.312 258.148 153.94 258.292 153.604 258.292C152.944 258.292 152.512 257.86 152.512 257.092V253.852H154.624V253.084H152.512V251.2H151.588V253.084H150.304V253.852H151.588V257.152C151.588 258.46 152.368 259.156 153.544 259.156C154.024 259.156 154.432 259.024 154.912 258.688L154.612 257.932ZM159.226 252.94C158.23 252.94 157.474 253.348 156.994 254.068V250.36H156.082V259H156.994V256.156C156.994 254.62 157.81 253.78 159.046 253.78C160.03 253.78 160.69 254.524 160.69 255.628V259H161.602V255.46C161.602 253.96 160.654 252.94 159.226 252.94ZM172.282 250.36H171.37V254.032C170.842 253.336 170.002 252.94 169.018 252.94C167.446 252.94 166.066 254.176 166.066 256.048C166.066 257.92 167.446 259.156 169.018 259.156C170.002 259.156 170.842 258.76 171.37 258.064V259H172.282V250.36ZM169.162 258.34C167.938 258.34 166.954 257.452 166.954 256.048C166.954 254.632 167.938 253.744 169.162 253.744C170.278 253.744 171.37 254.632 171.37 256.048C171.37 257.452 170.278 258.34 169.162 258.34ZM174.951 250.684C174.591 250.684 174.327 250.972 174.327 251.296C174.327 251.644 174.591 251.908 174.951 251.908C175.311 251.908 175.587 251.644 175.587 251.296C175.587 250.972 175.311 250.684 174.951 250.684ZM175.419 259V253.084H174.495V259H175.419ZM177.117 257.404C177.261 258.556 178.341 259.156 179.697 259.156C181.113 259.156 182.085 258.496 182.085 257.332C182.085 256.432 181.425 255.976 180.561 255.784L179.133 255.472C178.557 255.34 178.233 255.124 178.233 254.656C178.233 254.092 178.701 253.684 179.541 253.684C180.417 253.684 180.981 254.128 181.101 254.776L181.977 254.584C181.761 253.624 180.897 252.94 179.565 252.94C178.209 252.94 177.321 253.66 177.321 254.728C177.321 255.544 177.873 256.036 178.857 256.24L180.213 256.54C180.813 256.672 181.185 256.9 181.185 257.392C181.185 258.004 180.621 258.4 179.769 258.4C178.833 258.4 178.113 257.98 178.029 257.2L177.117 257.404ZM186.236 258.304C185.024 258.304 184.04 257.428 184.04 256.048C184.04 254.692 185.024 253.78 186.236 253.78C187.112 253.78 187.904 254.26 188.168 255.172L189.044 254.908C188.684 253.696 187.532 252.94 186.236 252.94C184.568 252.94 183.152 254.188 183.152 256.048C183.152 257.932 184.568 259.156 186.236 259.156C187.544 259.156 188.708 258.412 189.032 257.2L188.192 256.972C187.904 257.86 187.112 258.304 186.236 258.304ZM191.158 250.684C190.798 250.684 190.534 250.972 190.534 251.296C190.534 251.644 190.798 251.908 191.158 251.908C191.518 251.908 191.794 251.644 191.794 251.296C191.794 250.972 191.518 250.684 191.158 250.684ZM191.626 259V253.084H190.702V259H191.626ZM197.092 252.94C196.108 252.94 195.268 253.336 194.74 254.032V253.084H193.828V261.04H194.74V258.064C195.268 258.76 196.108 259.156 197.092 259.156C198.664 259.156 200.044 257.92 200.044 256.048C200.044 254.176 198.664 252.94 197.092 252.94ZM196.948 258.34C195.832 258.34 194.74 257.452 194.74 256.048C194.74 254.632 195.832 253.744 196.948 253.744C198.172 253.744 199.156 254.632 199.156 256.048C199.156 257.452 198.172 258.34 196.948 258.34ZM202.533 259V250.36H201.621V259H202.533ZM205.197 250.684C204.837 250.684 204.573 250.972 204.573 251.296C204.573 251.644 204.837 251.908 205.197 251.908C205.557 251.908 205.833 251.644 205.833 251.296C205.833 250.972 205.557 250.684 205.197 250.684ZM205.665 259V253.084H204.741V259H205.665ZM211.012 252.94C210.016 252.94 209.26 253.348 208.78 254.068V253.084H207.868V259H208.78V256.156C208.78 254.62 209.596 253.78 210.832 253.78C211.816 253.78 212.476 254.524 212.476 255.628V259H213.388V255.46C213.388 253.96 212.44 252.94 211.012 252.94ZM220.78 255.892C220.72 254.128 219.472 252.94 217.876 252.94C216.244 252.94 214.816 254.164 214.816 256.06C214.816 257.944 216.244 259.156 217.816 259.156C219.148 259.156 220.18 258.508 220.648 257.272L219.832 257.08C219.412 258.028 218.656 258.352 217.816 258.352C216.796 258.352 215.788 257.56 215.704 256.228H220.78V255.892ZM217.876 253.744C218.86 253.744 219.688 254.38 219.856 255.544H215.74C215.92 254.38 216.916 253.744 217.876 253.744ZM228.627 257.932C228.327 258.148 227.955 258.292 227.619 258.292C226.959 258.292 226.527 257.86 226.527 257.092V253.852H228.639V253.084H226.527V251.2H225.603V253.084H224.319V253.852H225.603V257.152C225.603 258.46 226.383 259.156 227.559 259.156C228.039 259.156 228.447 259.024 228.927 258.688L228.627 257.932ZM232.526 252.952C230.762 252.952 229.382 254.224 229.382 256.036C229.382 257.848 230.762 259.144 232.526 259.144C234.266 259.144 235.658 257.848 235.658 256.036C235.658 254.224 234.266 252.952 232.526 252.952ZM232.526 258.34C231.302 258.34 230.27 257.404 230.27 256.036C230.27 254.68 231.302 253.756 232.526 253.756C233.738 253.756 234.758 254.68 234.758 256.036C234.758 257.404 233.738 258.34 232.526 258.34ZM74.1636 269.024C73.0716 269.024 72.2676 269.66 71.7876 270.536V269.084H70.8636V275H71.7876V272.72C71.7876 271.124 72.5916 269.936 74.1636 269.936C74.2716 269.936 74.4036 269.936 74.5116 269.948L74.5836 269.072C74.4156 269.024 74.3076 269.024 74.1636 269.024ZM81.0806 271.892C81.0206 270.128 79.7726 268.94 78.1766 268.94C76.5446 268.94 75.1166 270.164 75.1166 272.06C75.1166 273.944 76.5446 275.156 78.1166 275.156C79.4486 275.156 80.4806 274.508 80.9486 273.272L80.1326 273.08C79.7126 274.028 78.9566 274.352 78.1166 274.352C77.0966 274.352 76.0886 273.56 76.0046 272.228H81.0806V271.892ZM78.1766 269.744C79.1606 269.744 79.9886 270.38 80.1566 271.544H76.0406C76.2206 270.38 77.2166 269.744 78.1766 269.744ZM88.2687 269.084H87.3567V270.032C86.8287 269.336 85.9887 268.94 85.0047 268.94C83.4327 268.94 82.0527 270.176 82.0527 272.048C82.0527 273.92 83.4327 275.156 85.0047 275.156C85.9887 275.156 86.8287 274.76 87.3567 274.064V275H88.2687V269.084ZM85.1487 274.34C83.9247 274.34 82.9407 273.452 82.9407 272.048C82.9407 270.632 83.9247 269.744 85.1487 269.744C86.2647 269.744 87.3567 270.632 87.3567 272.048C87.3567 273.452 86.2647 274.34 85.1487 274.34ZM92.9193 274.304C91.7073 274.304 90.7233 273.428 90.7233 272.048C90.7233 270.692 91.7073 269.78 92.9193 269.78C93.7953 269.78 94.5873 270.26 94.8513 271.172L95.7273 270.908C95.3673 269.696 94.2153 268.94 92.9193 268.94C91.2513 268.94 89.8353 270.188 89.8353 272.048C89.8353 273.932 91.2513 275.156 92.9193 275.156C94.2273 275.156 95.3913 274.412 95.7153 273.2L94.8753 272.972C94.5873 273.86 93.7953 274.304 92.9193 274.304ZM100.433 268.94C99.4374 268.94 98.6814 269.348 98.2014 270.068V266.36H97.2894V275H98.2014V272.156C98.2014 270.62 99.0174 269.78 100.253 269.78C101.237 269.78 101.897 270.524 101.897 271.628V275H102.809V271.46C102.809 269.96 101.861 268.94 100.433 268.94ZM113.297 269.084H112.277L110.117 273.812L108.005 269.084H106.973L109.625 274.916L108.653 277.04H109.673L113.297 269.084ZM116.991 268.952C115.227 268.952 113.847 270.224 113.847 272.036C113.847 273.848 115.227 275.144 116.991 275.144C118.731 275.144 120.123 273.848 120.123 272.036C120.123 270.224 118.731 268.952 116.991 268.952ZM116.991 274.34C115.767 274.34 114.735 273.404 114.735 272.036C114.735 270.68 115.767 269.756 116.991 269.756C118.203 269.756 119.223 270.68 119.223 272.036C119.223 273.404 118.203 274.34 116.991 274.34ZM127.076 269.084H126.152V271.928C126.152 273.464 125.336 274.292 124.1 274.292C123.116 274.292 122.468 273.56 122.468 272.456V269.084H121.544V272.624C121.544 274.124 122.492 275.144 123.92 275.144C124.904 275.144 125.672 274.736 126.152 274.028V274.988H127.076V269.084ZM132.476 269.024C131.384 269.024 130.58 269.66 130.1 270.536V269.084H129.176V275H130.1V272.72C130.1 271.124 130.904 269.936 132.476 269.936C132.584 269.936 132.716 269.936 132.824 269.948L132.896 269.072C132.728 269.024 132.62 269.024 132.476 269.024ZM142.629 269.084H141.741V269.9C141.261 269.288 140.505 268.94 139.521 268.94C137.961 268.94 136.605 270.116 136.605 271.784C136.605 273.464 137.961 274.652 139.521 274.652C140.505 274.652 141.261 274.304 141.741 273.68V274.4C141.741 275.66 140.913 276.452 139.665 276.452C138.561 276.452 137.961 276.008 137.541 275.216L136.773 275.744C137.229 276.704 138.201 277.28 139.665 277.28C141.453 277.28 142.629 276.248 142.641 274.52L142.629 269.084ZM139.653 273.86C138.453 273.86 137.493 273.044 137.493 271.784C137.493 270.524 138.453 269.732 139.653 269.732C140.757 269.732 141.741 270.524 141.741 271.784C141.741 273.044 140.757 273.86 139.653 273.86ZM147.343 268.952C145.579 268.952 144.199 270.224 144.199 272.036C144.199 273.848 145.579 275.144 147.343 275.144C149.083 275.144 150.475 273.848 150.475 272.036C150.475 270.224 149.083 268.952 147.343 268.952ZM147.343 274.34C146.119 274.34 145.087 273.404 145.087 272.036C145.087 270.68 146.119 269.756 147.343 269.756C148.555 269.756 149.575 270.68 149.575 272.036C149.575 273.404 148.555 274.34 147.343 274.34ZM157.655 269.084H156.743V270.032C156.215 269.336 155.375 268.94 154.391 268.94C152.819 268.94 151.439 270.176 151.439 272.048C151.439 273.92 152.819 275.156 154.391 275.156C155.375 275.156 156.215 274.76 156.743 274.064V275H157.655V269.084ZM154.535 274.34C153.311 274.34 152.327 273.452 152.327 272.048C152.327 270.632 153.311 269.744 154.535 269.744C155.651 269.744 156.743 270.632 156.743 272.048C156.743 273.452 155.651 274.34 154.535 274.34ZM160.674 275V266.36H159.762V275H160.674ZM162.281 273.404C162.425 274.556 163.505 275.156 164.861 275.156C166.277 275.156 167.249 274.496 167.249 273.332C167.249 272.432 166.589 271.976 165.725 271.784L164.297 271.472C163.721 271.34 163.397 271.124 163.397 270.656C163.397 270.092 163.865 269.684 164.705 269.684C165.581 269.684 166.145 270.128 166.265 270.776L167.141 270.584C166.925 269.624 166.061 268.94 164.729 268.94C163.373 268.94 162.485 269.66 162.485 270.728C162.485 271.544 163.037 272.036 164.021 272.24L165.377 272.54C165.977 272.672 166.349 272.9 166.349 273.392C166.349 274.004 165.785 274.4 164.933 274.4C163.997 274.4 163.277 273.98 163.193 273.2L162.281 273.404ZM175.155 269.852V269.084H173.007V268.208C173.007 267.452 173.463 266.984 174.183 266.984C174.399 266.984 174.639 267.032 174.855 267.116L175.083 266.372C174.795 266.228 174.471 266.156 174.123 266.156C172.887 266.156 172.095 266.96 172.095 268.208V269.084H171.063V269.852H172.095V275H173.007V269.852H175.155ZM181.714 269.084H180.802V270.032C180.274 269.336 179.434 268.94 178.45 268.94C176.878 268.94 175.498 270.176 175.498 272.048C175.498 273.92 176.878 275.156 178.45 275.156C179.434 275.156 180.274 274.76 180.802 274.064V275H181.714V269.084ZM178.594 274.34C177.37 274.34 176.386 273.452 176.386 272.048C176.386 270.632 177.37 269.744 178.594 269.744C179.71 269.744 180.802 270.632 180.802 272.048C180.802 273.452 179.71 274.34 178.594 274.34ZM183.317 273.404C183.461 274.556 184.541 275.156 185.897 275.156C187.313 275.156 188.285 274.496 188.285 273.332C188.285 272.432 187.625 271.976 186.761 271.784L185.333 271.472C184.757 271.34 184.433 271.124 184.433 270.656C184.433 270.092 184.901 269.684 185.741 269.684C186.617 269.684 187.181 270.128 187.301 270.776L188.177 270.584C187.961 269.624 187.097 268.94 185.765 268.94C184.409 268.94 183.521 269.66 183.521 270.728C183.521 271.544 184.073 272.036 185.057 272.24L186.413 272.54C187.013 272.672 187.385 272.9 187.385 273.392C187.385 274.004 186.821 274.4 185.969 274.4C185.033 274.4 184.313 273.98 184.229 273.2L183.317 273.404ZM193.143 273.932C192.843 274.148 192.471 274.292 192.135 274.292C191.475 274.292 191.043 273.86 191.043 273.092V269.852H193.155V269.084H191.043V267.2H190.119V269.084H188.835V269.852H190.119V273.152C190.119 274.46 190.899 275.156 192.075 275.156C192.555 275.156 192.963 275.024 193.443 274.688L193.143 273.932ZM199.862 271.892C199.802 270.128 198.554 268.94 196.958 268.94C195.326 268.94 193.898 270.164 193.898 272.06C193.898 273.944 195.326 275.156 196.898 275.156C198.23 275.156 199.262 274.508 199.73 273.272L198.914 273.08C198.494 274.028 197.738 274.352 196.898 274.352C195.878 274.352 194.87 273.56 194.786 272.228H199.862V271.892ZM196.958 269.744C197.942 269.744 198.77 270.38 198.938 271.544H194.822C195.002 270.38 195.998 269.744 196.958 269.744ZM204.734 269.024C203.642 269.024 202.838 269.66 202.358 270.536V269.084H201.434V275H202.358V272.72C202.358 271.124 203.162 269.936 204.734 269.936C204.842 269.936 204.974 269.936 205.082 269.948L205.154 269.072C204.986 269.024 204.878 269.024 204.734 269.024ZM205.762 273.824C205.402 273.824 205.138 274.112 205.138 274.436C205.138 274.772 205.402 275.036 205.762 275.036C206.122 275.036 206.386 274.772 206.386 274.436C206.386 274.112 206.122 273.824 205.762 273.824Z" fill="#000A1A"/>
</g>
<defs>
<filter id="filter0_d_10669_33743" x="0.943041" y="0.590721" width="287.613" height="323.213" filterUnits="userSpaceOnUse" color-interpolation-filters="sRGB">
<feFlood flood-opacity="0" result="BackgroundImageFix"/>
<feColorMatrix in="SourceAlpha" type="matrix" values="0 0 0 0 0 0 0 0 0 0 0 0 0 0 0 0 0 0 127 0" result="hardAlpha"/>
<feOffset dx="6.35232"/>
<feGaussianBlur stdDeviation="12.7046"/>
<feComposite in2="hardAlpha" operator="out"/>
<feColorMatrix type="matrix" values="0 0 0 0 0 0 0 0 0 0 0 0 0 0 0 0 0 0 0.08 0"/>
<feBlend mode="normal" in2="BackgroundImageFix" result="effect1_dropShadow_10669_33743"/>
<feBlend mode="normal" in="SourceGraphic" in2="effect1_dropShadow_10669_33743" result="shape"/>
</filter>
<clipPath id="clip0_10669_33743">
<rect width="151.299" height="152.424" fill="white" transform="translate(39.3975 45.3984)"/>
</clipPath>
</defs>
</svg>
